<?xml version="1.0" encoding="UTF-8" standalone="no"?>
<!DOCTYPE svg PUBLIC "-//W3C//DTD SVG 1.1//EN"
 "http://www.w3.org/Graphics/SVG/1.1/DTD/svg11.dtd">
<!-- Generated by graphviz version 2.43.0 (0)
 -->
<!-- Title: classes Pages: 1 -->
<svg width="1940pt" height="515pt"
 viewBox="0.00 0.00 1940.00 515.00" xmlns="http://www.w3.org/2000/svg" xmlns:xlink="http://www.w3.org/1999/xlink">
<g id="graph0" class="graph" transform="scale(1 1) rotate(0) translate(4 511)">
<title>classes</title>
<polygon fill="white" stroke="transparent" points="-4,4 -4,-511 1936,-511 1936,4 -4,4"/>
<!-- main.Apple -->
<g id="node1" class="node">
<title>main.Apple</title>
<polygon fill="none" stroke="black" points="590,-226.5 590,-340.5 1031,-340.5 1031,-226.5 590,-226.5"/>
<text text-anchor="start" x="790" y="-325.3" font-family="Times,serif" font-size="14.00">Apple</text>
<polyline fill="none" stroke="black" points="590,-317.5 1031,-317.5 "/>
<text text-anchor="start" x="698" y="-302.3" font-family="Times,serif" font-size="14.00">coordinates : tuple</text>
<text text-anchor="start" x="698" y="-287.3" font-family="Times,serif" font-size="14.00">previous_coords : tuple[int, int]</text>
<polyline fill="none" stroke="black" points="590,-279.5 1031,-279.5 "/>
<text text-anchor="start" x="598" y="-264.3" font-family="Times,serif" font-size="14.00">eat(): None</text>
<text text-anchor="start" x="598" y="-249.3" font-family="Times,serif" font-size="14.00">is_collision(coordinates: tuple[int, int]): bool</text>
<text text-anchor="start" x="598" y="-234.3" font-family="Times,serif" font-size="14.00">spawn(obstacles: list[Callable[[tuple[int, int]], bool]]): None</text>
</g>
<!-- main.Block -->
<g id="node2" class="node">
<title>main.Block</title>
<polygon fill="none" stroke="black" points="442.5,-377.5 442.5,-506.5 668.5,-506.5 668.5,-377.5 442.5,-377.5"/>
<text text-anchor="start" x="535.5" y="-491.3" font-family="Times,serif" font-size="14.00">Block</text>
<polyline fill="none" stroke="black" points="442.5,-483.5 668.5,-483.5 "/>
<text text-anchor="start" x="459" y="-468.3" font-family="Times,serif" font-size="14.00">coordinates : tuple[int, int]</text>
<text text-anchor="start" x="459" y="-453.3" font-family="Times,serif" font-size="14.00">id : int</text>
<text text-anchor="start" x="459" y="-438.3" font-family="Times,serif" font-size="14.00">position : tuple[int, int]</text>
<text text-anchor="start" x="459" y="-423.3" font-family="Times,serif" font-size="14.00">x : int</text>
<text text-anchor="start" x="459" y="-408.3" font-family="Times,serif" font-size="14.00">y : int</text>
<polyline fill="none" stroke="black" points="442.5,-400.5 668.5,-400.5 "/>
<text text-anchor="start" x="450.5" y="-385.3" font-family="Times,serif" font-size="14.00">draw(surface: Surface): None</text>
</g>
<!-- main.Apple&#45;&gt;main.Block -->
<g id="edge1" class="edge">
<title>main.Apple&#45;&gt;main.Block</title>
<path fill="none" stroke="black" d="M719.16,-340.56C702.61,-350.72 685.17,-361.42 668.1,-371.9"/>
<polygon fill="none" stroke="black" points="665.9,-369.14 659.21,-377.35 669.56,-375.1 665.9,-369.14"/>
</g>
<!-- main.Cherry -->
<g id="node3" class="node">
<title>main.Cherry</title>
<polygon fill="none" stroke="black" points="562,-23 562,-167 1191,-167 1191,-23 562,-23"/>
<text text-anchor="start" x="851.5" y="-151.8" font-family="Times,serif" font-size="14.00">Cherry</text>
<polyline fill="none" stroke="black" points="562,-144 1191,-144 "/>
<text text-anchor="start" x="809.5" y="-128.8" font-family="Times,serif" font-size="14.00">cherry_time : int</text>
<text text-anchor="start" x="809.5" y="-113.8" font-family="Times,serif" font-size="14.00">coordinates : tuple</text>
<text text-anchor="start" x="809.5" y="-98.8" font-family="Times,serif" font-size="14.00">life_time : int</text>
<text text-anchor="start" x="809.5" y="-83.8" font-family="Times,serif" font-size="14.00">out_time : int</text>
<polyline fill="none" stroke="black" points="562,-76 1191,-76 "/>
<text text-anchor="start" x="570" y="-60.8" font-family="Times,serif" font-size="14.00">eat(): None</text>
<text text-anchor="start" x="570" y="-45.8" font-family="Times,serif" font-size="14.00">spawn(obstacles)</text>
<text text-anchor="start" x="570" y="-30.8" font-family="Times,serif" font-size="14.00">update(out_range: tuple[int, int], obstacles: list[Callable[[tuple[int, int]], bool]]): None</text>
</g>
<!-- main.Cherry&#45;&gt;main.Apple -->
<g id="edge2" class="edge">
<title>main.Cherry&#45;&gt;main.Apple</title>
<path fill="none" stroke="black" d="M851.36,-167.04C845.6,-183.32 839.5,-200.56 833.82,-216.62"/>
<polygon fill="none" stroke="black" points="830.38,-215.85 830.34,-226.44 836.97,-218.18 830.38,-215.85"/>
</g>
<!-- main.Direction -->
<g id="node4" class="node">
<title>main.Direction</title>
<polygon fill="none" stroke="black" points="1209,-60.5 1209,-129.5 1292,-129.5 1292,-60.5 1209,-60.5"/>
<text text-anchor="start" x="1217" y="-114.3" font-family="Times,serif" font-size="14.00">Direction</text>
<polyline fill="none" stroke="black" points="1209,-106.5 1292,-106.5 "/>
<text text-anchor="start" x="1230.5" y="-91.3" font-family="Times,serif" font-size="14.00">name</text>
<polyline fill="none" stroke="black" points="1209,-83.5 1292,-83.5 "/>
<text text-anchor="start" x="1248" y="-68.3" font-family="Times,serif" font-size="14.00"> </text>
</g>
<!-- main.DirectionBlock -->
<g id="node5" class="node">
<title>main.DirectionBlock</title>
<polygon fill="none" stroke="black" points="224.5,-249 224.5,-318 506.5,-318 506.5,-249 224.5,-249"/>
<text text-anchor="start" x="312.5" y="-302.8" font-family="Times,serif" font-size="14.00">DirectionBlock</text>
<polyline fill="none" stroke="black" points="224.5,-295 506.5,-295 "/>
<text text-anchor="start" x="232.5" y="-279.8" font-family="Times,serif" font-size="14.00">direction : tuple[Direction, Direction]</text>
<polyline fill="none" stroke="black" points="224.5,-272 506.5,-272 "/>
<text text-anchor="start" x="260.5" y="-256.8" font-family="Times,serif" font-size="14.00">draw(surface: Surface): None</text>
</g>
<!-- main.DirectionBlock&#45;&gt;main.Block -->
<g id="edge3" class="edge">
<title>main.DirectionBlock&#45;&gt;main.Block</title>
<path fill="none" stroke="black" d="M406.26,-318.07C425.08,-333.58 448.18,-352.6 470.53,-371.01"/>
<polygon fill="none" stroke="black" points="468.45,-373.84 478.4,-377.49 472.9,-368.43 468.45,-373.84"/>
</g>
<!-- main.Head -->
<g id="node6" class="node">
<title>main.Head</title>
<polygon fill="none" stroke="black" points="0,-45.5 0,-144.5 131,-144.5 131,-45.5 0,-45.5"/>
<text text-anchor="start" x="46.5" y="-129.3" font-family="Times,serif" font-size="14.00">Head</text>
<polyline fill="none" stroke="black" points="0,-121.5 131,-121.5 "/>
<text text-anchor="start" x="8" y="-106.3" font-family="Times,serif" font-size="14.00">direction : tuple</text>
<text text-anchor="start" x="8" y="-91.3" font-family="Times,serif" font-size="14.00">x</text>
<text text-anchor="start" x="8" y="-76.3" font-family="Times,serif" font-size="14.00">y</text>
<polyline fill="none" stroke="black" points="0,-68.5 131,-68.5 "/>
<text text-anchor="start" x="63" y="-53.3" font-family="Times,serif" font-size="14.00"> </text>
</g>
<!-- main.Head&#45;&gt;main.DirectionBlock -->
<g id="edge4" class="edge">
<title>main.Head&#45;&gt;main.DirectionBlock</title>
<path fill="none" stroke="black" d="M96.87,-144.7C109.01,-160.73 123.97,-177.6 140.5,-190 171.05,-212.92 208.08,-231.19 243.22,-245.23"/>
<polygon fill="none" stroke="black" points="242,-248.51 252.58,-248.9 244.55,-241.99 242,-248.51"/>
</g>
<!-- main.Map -->
<g id="node7" class="node">
<title>main.Map</title>
<polygon fill="none" stroke="black" points="1310.5,-0.5 1310.5,-189.5 1582.5,-189.5 1582.5,-0.5 1310.5,-0.5"/>
<text text-anchor="start" x="1430.5" y="-174.3" font-family="Times,serif" font-size="14.00">Map</text>
<polyline fill="none" stroke="black" points="1310.5,-166.5 1582.5,-166.5 "/>
<text text-anchor="start" x="1327.5" y="-151.3" font-family="Times,serif" font-size="14.00">cherries : bool</text>
<text text-anchor="start" x="1327.5" y="-136.3" font-family="Times,serif" font-size="14.00">cherry_out_time : tuple</text>
<text text-anchor="start" x="1327.5" y="-121.3" font-family="Times,serif" font-size="14.00">cherry_time : int</text>
<text text-anchor="start" x="1327.5" y="-106.3" font-family="Times,serif" font-size="14.00">next_after : int</text>
<text text-anchor="start" x="1327.5" y="-91.3" font-family="Times,serif" font-size="14.00">snake_coord : tuple</text>
<text text-anchor="start" x="1327.5" y="-76.3" font-family="Times,serif" font-size="14.00">snake_dir : Down, Left, Right, Up</text>
<text text-anchor="start" x="1327.5" y="-61.3" font-family="Times,serif" font-size="14.00">speed : int</text>
<polyline fill="none" stroke="black" points="1310.5,-53.5 1582.5,-53.5 "/>
<text text-anchor="start" x="1318.5" y="-38.3" font-family="Times,serif" font-size="14.00">draw(surface: Surface): None</text>
<text text-anchor="start" x="1318.5" y="-23.3" font-family="Times,serif" font-size="14.00">is_collision(pos: tuple[int, int]): bool</text>
<text text-anchor="start" x="1318.5" y="-8.3" font-family="Times,serif" font-size="14.00">load_map(path: str)</text>
</g>
<!-- main.Part -->
<g id="node8" class="node">
<title>main.Part</title>
<polygon fill="none" stroke="black" points="149.5,-59.6 149.5,-130.4 375.5,-130.4 375.5,-59.6 149.5,-59.6"/>
<text text-anchor="start" x="247" y="-115.2" font-family="Times,serif" font-size="14.00">Part</text>
<polyline fill="none" stroke="black" points="149.5,-107.4 375.5,-107.4 "/>
<polyline fill="none" stroke="black" points="149.5,-82.6 375.5,-82.6 "/>
<text text-anchor="start" x="157.5" y="-67.4" font-family="Times,serif" font-size="14.00">draw(surface: Surface): None</text>
</g>
<!-- main.Part&#45;&gt;main.DirectionBlock -->
<g id="edge5" class="edge">
<title>main.Part&#45;&gt;main.DirectionBlock</title>
<path fill="none" stroke="black" d="M281.63,-130.64C298.7,-161.55 323.75,-206.91 342.03,-240"/>
<polygon fill="none" stroke="black" points="339.09,-241.92 346.99,-248.99 345.22,-238.54 339.09,-241.92"/>
</g>
<!-- main.Snake -->
<g id="node9" class="node">
<title>main.Snake</title>
<polygon fill="none" stroke="black" points="1601,-15.5 1601,-174.5 1932,-174.5 1932,-15.5 1601,-15.5"/>
<text text-anchor="start" x="1744.5" y="-159.3" font-family="Times,serif" font-size="14.00">Snake</text>
<polyline fill="none" stroke="black" points="1601,-151.5 1932,-151.5 "/>
<text text-anchor="start" x="1670" y="-136.3" font-family="Times,serif" font-size="14.00">coordinates : tuple[int, int]</text>
<text text-anchor="start" x="1670" y="-121.3" font-family="Times,serif" font-size="14.00">position : tuple[int, int]</text>
<text text-anchor="start" x="1670" y="-106.3" font-family="Times,serif" font-size="14.00">score : int</text>
<polyline fill="none" stroke="black" points="1601,-98.5 1932,-98.5 "/>
<text text-anchor="start" x="1609" y="-83.3" font-family="Times,serif" font-size="14.00">draw(surface: Surface): None</text>
<text text-anchor="start" x="1609" y="-68.3" font-family="Times,serif" font-size="14.00">grow(): None</text>
<text text-anchor="start" x="1609" y="-53.3" font-family="Times,serif" font-size="14.00">is_collision(coordinates: tuple[int, int]): bool</text>
<text text-anchor="start" x="1609" y="-38.3" font-family="Times,serif" font-size="14.00">set_direction(dir: Direction): None</text>
<text text-anchor="start" x="1609" y="-23.3" font-family="Times,serif" font-size="14.00">update(move: bool): None</text>
</g>
<!-- main.Tail -->
<g id="node10" class="node">
<title>main.Tail</title>
<polygon fill="none" stroke="black" points="393.5,-53 393.5,-137 543.5,-137 543.5,-53 393.5,-53"/>
<text text-anchor="start" x="455.5" y="-121.8" font-family="Times,serif" font-size="14.00">Tail</text>
<polyline fill="none" stroke="black" points="393.5,-114 543.5,-114 "/>
<text text-anchor="start" x="401.5" y="-98.8" font-family="Times,serif" font-size="14.00">coordinates : tuple</text>
<text text-anchor="start" x="401.5" y="-83.8" font-family="Times,serif" font-size="14.00">direction : tuple</text>
<polyline fill="none" stroke="black" points="393.5,-76 543.5,-76 "/>
<text text-anchor="start" x="466" y="-60.8" font-family="Times,serif" font-size="14.00"> </text>
</g>
<!-- main.Tail&#45;&gt;main.DirectionBlock -->
<g id="edge6" class="edge">
<title>main.Tail&#45;&gt;main.DirectionBlock</title>
<path fill="none" stroke="black" d="M445.64,-137.39C428.76,-167.96 405.85,-209.44 388.85,-240.22"/>
<polygon fill="none" stroke="black" points="385.77,-238.55 384,-249 391.9,-241.94 385.77,-238.55"/>
</g>
</g>
</svg>
